<?xml version="1.0" standalone="no"?><!DOCTYPE svg PUBLIC "-//W3C//DTD SVG 1.1//EN" "http://www.w3.org/Graphics/SVG/1.1/DTD/svg11.dtd"><svg t="1552729710056" class="icon" style="" viewBox="0 0 1024 1024" version="1.1" xmlns="http://www.w3.org/2000/svg" p-id="32557" xmlns:xlink="http://www.w3.org/1999/xlink" width="26" height="26"><defs><style type="text/css"></style></defs><path d="M768 384V256c0-176.736-128-256-256-256H256C128 0 0 68 0 256c0 184 128 256 256 256h29.632C267.488 547.168 256 588.992 256 640v128c0 141.376 114.624 256 256 256 0-70.688 57.504-128 128-128h128c128 0 256-72 256-256C1024 452 896 384 768 384zM256 384c-128 0-128-96.384-128-128 0-38.368 0-128 128-128h256c48 0 128 16.64 128 128v128c0 41.824-20 79.072-51.488 102.4C541.792 424.256 467.488 384 384 384H256zM768 768h-128c-83.488 0-158.016 40.256-204.704 102.368C404.128 847.008 384 809.76 384 768v-128c0-58.592 29.12-94.112 58.112-112.384C483.136 548.992 512 590.624 512 640c94.624 0 176.288-51.872 220.64-128.128-0.128 0.032-0.128 0.032-0.128 0.128H768c128 0 128 89.664 128 128C896 671.648 896 768 768 768zM759.008 447.808c-0.864 2.944-1.888 5.824-2.72 8.672C757.12 453.632 758.272 450.752 759.008 447.808z" p-id="32558" fill="#8a8a8a"></path></svg>
