<?xml version="1.0" standalone="no"?><!DOCTYPE svg PUBLIC "-//W3C//DTD SVG 1.1//EN" "http://www.w3.org/Graphics/SVG/1.1/DTD/svg11.dtd"><svg t="1556763552817" class="icon" style="" viewBox="0 0 1024 1024" version="1.1" xmlns="http://www.w3.org/2000/svg" p-id="9152" xmlns:xlink="http://www.w3.org/1999/xlink" width="20" height="20"><defs><style type="text/css"></style></defs><path d="M204.8 358.4v460.8h614.4V358.4z m563.2-153.6h102.4a48.384 48.384 0 0 1 51.2 51.2v614.4a48.384 48.384 0 0 1-51.2 51.2H153.6a48.384 48.384 0 0 1-51.2-51.2V256a48.384 48.384 0 0 1 51.2-51.2h102.4V153.6a48.384 48.384 0 0 1 51.2-51.2 48.384 48.384 0 0 1 51.2 51.2v51.2h307.2V153.6a51.2 51.2 0 0 1 102.4 0z m-51.2 512h-102.4v-102.4h102.4z m-153.6 0H460.8v-102.4h102.4z m153.6-153.6h-102.4V460.8h102.4z m-153.6 0H460.8V460.8h102.4z m-153.6 153.6H307.2v-102.4h102.4z" p-id="9153"></path></svg>