<?xml version="1.0" standalone="no"?><!DOCTYPE svg PUBLIC "-//W3C//DTD SVG 1.1//EN" "http://www.w3.org/Graphics/SVG/1.1/DTD/svg11.dtd"><svg t="1556850721063" class="icon" style="" viewBox="0 0 1117 1024" version="1.1" xmlns="http://www.w3.org/2000/svg" p-id="2597" xmlns:xlink="http://www.w3.org/1999/xlink" width="17.453125" height="16"><defs><style type="text/css"></style></defs><path d="M1060.631273 925.789091H44.823273a44.776727 44.776727 0 1 0 0 89.6h1015.808a44.776727 44.776727 0 1 0 0-89.6zM370.501818 514.513455c11.496727 0 22.946909 4.328727 31.744 13.032727l105.704727 105.844363V74.426182a44.776727 44.776727 0 1 1 89.646546 0v558.964363l105.658182-105.658181a44.683636 44.683636 0 0 1 31.790545-13.125819 44.683636 44.683636 0 0 1 31.744 76.427637l-182.272 182.132363a44.683636 44.683636 0 0 1-63.348363 0L338.850909 591.127273a44.683636 44.683636 0 0 1 0-63.394909 44.218182 44.218182 0 0 1 31.650909-13.172364z" fill="#ffffff" p-id="2598"></path></svg>