<?xml version="1.0" standalone="no"?><!DOCTYPE svg PUBLIC "-//W3C//DTD SVG 1.1//EN" "http://www.w3.org/Graphics/SVG/1.1/DTD/svg11.dtd"><svg t="1556888400505" class="icon" style="" viewBox="0 0 1024 1024" version="1.1" xmlns="http://www.w3.org/2000/svg" p-id="4645" xmlns:xlink="http://www.w3.org/1999/xlink" width="24" height="24"><defs><style type="text/css"></style></defs><path d="M720.6912 229.0176l-50.1248-32.4608a51.2 51.2 0 1 1 55.7056-85.9136l171.9808 111.36c42.8032 27.7504 23.1424 94.208-27.8528 94.208-233.6256 0-409.6 118.8864-409.6 298.1888a51.2 51.2 0 0 1-102.4 0c0-201.0624 152.1664-340.7872 362.2912-385.3824zM870.4 519.8336h102.4V819.2a153.6 153.6 0 0 1-153.6 153.6H204.8a153.6 153.6 0 0 1-153.6-153.6V204.8a153.6 153.6 0 0 1 153.6-153.6h259.072v102.4H204.8a51.2 51.2 0 0 0-51.2 51.2v614.4a51.2 51.2 0 0 0 51.2 51.2h614.4a51.2 51.2 0 0 0 51.2-51.2v-299.4176z" fill="#2c2c2c" p-id="4646"></path></svg>