<?xml version="1.0" standalone="no"?><!DOCTYPE svg PUBLIC "-//W3C//DTD SVG 1.1//EN" "http://www.w3.org/Graphics/SVG/1.1/DTD/svg11.dtd"><svg t="1556888121472" class="icon" style="" viewBox="0 0 1028 1024" version="1.1" xmlns="http://www.w3.org/2000/svg" p-id="3866" xmlns:xlink="http://www.w3.org/1999/xlink" width="24.09375" height="24"><defs><style type="text/css"></style></defs><path d="M245.64224 576C316.04224 659.2 450.44224 800 514.44224 870.4c32-32 57.6-64 89.6-96 57.6-64 121.6-128 179.2-198.4 44.8-57.6 102.4-128 115.2-198.4 12.8-76.8-44.8-160-121.6-179.2-76.8-19.2-147.2 38.4-179.2 89.6-38.4 57.6-128 57.6-166.4 0-32-57.6-102.4-108.8-179.2-89.6-76.8 19.2-128 102.4-121.6 179.2C143.24224 448 200.84224 518.4 245.64224 576zM514.44224 1011.2c-25.6 0-51.2-12.8-70.4-32-64-64-211.2-230.4-294.4-326.4-57.6-64-128-153.6-147.2-262.4-19.2-140.8 76.8-288 217.6-320C328.84224 44.8 437.64224 89.6 514.44224 185.6c76.8-96 185.6-140.8 294.4-108.8 140.8 38.4 236.8 179.2 217.6 320-12.8 108.8-89.6 198.4-147.2 262.4-57.6 70.4-121.6 134.4-179.2 198.4-38.4 38.4-76.8 83.2-115.2 121.6-19.2 25.6-44.8 32-70.4 32z" p-id="3867" fill="#0007ff"></path></svg>