<?xml version="1.0" standalone="no"?><!DOCTYPE svg PUBLIC "-//W3C//DTD SVG 1.1//EN" "http://www.w3.org/Graphics/SVG/1.1/DTD/svg11.dtd"><svg t="1552730038565" class="icon" style="" viewBox="0 0 1024 1024" version="1.1" xmlns="http://www.w3.org/2000/svg" p-id="47122" xmlns:xlink="http://www.w3.org/1999/xlink" width="26" height="26"><defs><style type="text/css"></style></defs><path d="M716.8 563.2C787.2 505.6 832 416 832 320c0-179.2-140.8-320-320-320S192 140.8 192 320c0 96 44.8 185.6 115.2 243.2C160 640 64 787.2 64 960c0 38.4 25.6 64 64 64s64-25.6 64-64c0-179.2 140.8-320 320-320s320 140.8 320 320c0 38.4 25.6 64 64 64s64-25.6 64-64c0-172.8-96-320-243.2-396.8zM512 512C403.2 512 320 428.8 320 320s83.2-192 192-192 192 83.2 192 192-83.2 192-192 192z" p-id="47123" fill="#8a8a8a"></path></svg>
